<svg width="29" height="27" viewBox="0 0 29 27" fill="none" xmlns="http://www.w3.org/2000/svg">
<path d="M16.9541 5.73926C15.9092 5.73926 15.0704 6.59118 15.0704 7.65236V24.8702C15.0704 25.9314 15.9092 26.7833 16.9541 26.7833H18.8379C19.8829 26.7833 20.7217 25.9314 20.7217 24.8702V7.65236C20.7217 6.59118 19.8829 5.73926 18.8379 5.73926H16.9541ZM9.41897 11.4785C8.37405 11.4785 7.53518 12.3305 7.53518 13.3916V24.8702C7.53518 25.9314 8.37405 26.7833 9.41897 26.7833H11.3028C12.3477 26.7833 13.1866 25.9314 13.1866 24.8702V13.3916C13.1866 12.3305 12.3477 11.4785 11.3028 11.4785H9.41897ZM1.88379 17.2178C0.838876 17.2178 0 18.0698 0 19.1309V24.8702C0 25.9314 0.838876 26.7833 1.88379 26.7833H3.76759C4.81251 26.7833 5.65138 25.9314 5.65138 24.8702V19.1309C5.65138 18.0698 4.81251 17.2178 3.76759 17.2178H1.88379Z" fill="#2E3436"/>
<path d="M24.4893 0C23.4443 0 22.6055 0.851925 22.6055 1.9131V24.8703C22.6055 25.9314 23.4443 26.7834 24.4893 26.7834H26.3731C27.418 26.7834 28.2569 25.9314 28.2569 24.8703V1.9131C28.2569 0.851925 27.418 0 26.3731 0H24.4893Z" fill="#2E3436" fill-opacity="0.34902"/>
</svg>
