<svg width="28" height="28" viewBox="0 0 28 28" fill="none" xmlns="http://www.w3.org/2000/svg">
<path d="M24.2667 0C23.2312 0 22.4 0.890624 22.4 2V26C22.4 27.1094 23.2312 28 24.2667 28H26.1333C27.1688 28 28 27.1094 28 26V2C28 0.890624 27.1688 0 26.1333 0H24.2667ZM16.8 6C15.7646 6 14.9333 6.89062 14.9333 8V26C14.9333 27.1094 15.7646 28 16.8 28H18.6667C19.7021 28 20.5333 27.1094 20.5333 26V8C20.5333 6.89062 19.7021 6 18.6667 6H16.8ZM9.33333 12C8.29792 12 7.46667 12.8906 7.46667 14V26C7.46667 27.1094 8.29792 28 9.33333 28H11.2C12.2354 28 13.0667 27.1094 13.0667 26V14C13.0667 12.8906 12.2354 12 11.2 12H9.33333ZM1.86667 18C0.831249 18 0 18.8906 0 20V26C0 27.1094 0.831249 28 1.86667 28H3.73333C4.76875 28 5.6 27.1094 5.6 26V20C5.6 18.8906 4.76875 18 3.73333 18H1.86667Z" fill="#2E3436"/>
</svg>
