<svg xmlns="http://www.w3.org/2000/svg" width="60" height="61" viewBox="0 0 60 61" fill="none">
  <path d="M59.9995 30.3644C59.9293 24.6121 58.2268 18.9998 55.0924 14.1885C51.9581 9.37713 47.5228 5.56707 42.3087 3.20705C37.0942 0.847023 31.3183 0.0353319 25.6608 0.867511C20.0035 1.69973 14.7003 4.14114 10.3758 7.90434C6.05122 11.6675 2.88549 16.5957 1.25138 22.1084C-0.382692 27.6213 -0.417118 33.489 1.15223 39.0209C2.72157 44.5528 5.82929 49.5179 10.1094 53.3322C14.3895 57.1466 19.6637 59.6508 25.311 60.55V39.1559H17.8108V30.3644H25.311V23.6858C25.1373 22.133 25.3046 20.5607 25.8011 19.0799C26.2976 17.5992 27.111 16.2461 28.1839 15.1162C29.2568 13.9863 30.563 13.1071 32.0105 12.5407C33.4581 11.9743 35.0117 11.7344 36.5613 11.8381C38.8106 11.8691 41.0547 12.0709 43.274 12.4418V19.9882H39.5239C38.8773 19.9061 38.2203 19.9713 37.6023 20.179C36.9839 20.3866 36.4199 20.7314 35.9519 21.1878C35.4839 21.6442 35.1239 22.2006 34.8985 22.8157C34.6727 23.4311 34.5876 24.0896 34.6487 24.7423V30.4399H42.974L41.6239 39.2314H34.6862V60.3613C41.7736 59.2335 48.2245 55.5871 52.8686 50.0835C57.5128 44.5799 60.0426 37.584 59.9995 30.3644Z" fill="black"/>
</svg>