<svg width="57" height="58" viewBox="0 0 57 58" fill="none" xmlns="http://www.w3.org/2000/svg">
<g clip-path="url(#clip0_564_925)">
<path d="M15.3535 20.1499C14.3032 20.1499 13.46 21.0423 13.46 22.1539V28.166C13.46 29.2776 14.3032 30.1701 15.3535 30.1701H17.2471C18.2974 30.1701 19.1407 29.2776 19.1407 28.166V22.1539C19.1407 21.0423 18.2974 20.1499 17.2471 20.1499H15.3535Z" fill="#2E3436"/>
<path d="M38.0763 2.11365C37.0259 2.11365 36.1827 3.00607 36.1827 4.11768V28.166C36.1827 29.2777 37.0259 30.1701 38.0763 30.1701H39.9698C41.0202 30.1701 41.8634 29.2777 41.8634 28.166V4.11768C41.8634 3.00607 41.0202 2.11365 39.9698 2.11365H38.0763ZM30.502 8.12574C29.4517 8.12574 28.6084 9.01816 28.6084 10.1298V28.166C28.6084 29.2777 29.4517 30.1701 30.502 30.1701H32.3956C33.4459 30.1701 34.2891 29.2777 34.2891 28.166V10.1298C34.2891 9.01816 33.4459 8.12574 32.3956 8.12574H30.502ZM22.9277 14.1378C21.8774 14.1378 21.0342 15.0303 21.0342 16.1419V28.166C21.0342 29.2777 21.8774 30.1701 22.9277 30.1701H24.8213C25.8716 30.1701 26.7149 29.2777 26.7149 28.166V16.1419C26.7149 15.0303 25.8716 14.1378 24.8213 14.1378H22.9277Z" fill="#2E3436" fill-opacity="0.34902"/>
</g>
<path d="M10.5629 49.4327H15.4489V50.9727H10.5629V49.4327ZM10.7169 54.7247H8.89694V44.9247H16.0509V46.4507H10.7169V54.7247ZM22.0029 54.7247V53.2127L21.9049 52.8907V50.2447C21.9049 49.7314 21.7509 49.3347 21.4429 49.0547C21.1349 48.7654 20.6682 48.6207 20.0429 48.6207C19.6229 48.6207 19.2076 48.6861 18.7969 48.8167C18.3956 48.9474 18.0549 49.1294 17.7749 49.3627L17.0889 48.0887C17.4902 47.7807 17.9662 47.5521 18.5169 47.4027C19.0769 47.2441 19.6556 47.1647 20.2529 47.1647C21.3356 47.1647 22.1709 47.4261 22.7589 47.9487C23.3562 48.4621 23.6549 49.2601 23.6549 50.3427V54.7247H22.0029ZM19.6509 54.8227C19.0909 54.8227 18.6009 54.7294 18.1809 54.5427C17.7609 54.3467 17.4342 54.0807 17.2009 53.7447C16.9769 53.3994 16.8649 53.0121 16.8649 52.5827C16.8649 52.1627 16.9629 51.7847 17.1589 51.4487C17.3642 51.1127 17.6956 50.8467 18.1529 50.6507C18.6102 50.4547 19.2169 50.3567 19.9729 50.3567H22.1429V51.5187H20.0989C19.5016 51.5187 19.1002 51.6167 18.8949 51.8127C18.6896 51.9994 18.5869 52.2327 18.5869 52.5127C18.5869 52.8301 18.7129 53.0821 18.9649 53.2687C19.2169 53.4554 19.5669 53.5487 20.0149 53.5487C20.4442 53.5487 20.8269 53.4507 21.1629 53.2547C21.5082 53.0587 21.7556 52.7694 21.9049 52.3867L22.1989 53.4367C22.0309 53.8754 21.7276 54.2161 21.2889 54.4587C20.8596 54.7014 20.3136 54.8227 19.6509 54.8227ZM29.3445 54.8227C28.5605 54.8227 27.8605 54.6594 27.2445 54.3327C26.6378 53.9967 26.1618 53.5394 25.8165 52.9607C25.4712 52.3821 25.2985 51.7241 25.2985 50.9867C25.2985 50.2401 25.4712 49.5821 25.8165 49.0127C26.1618 48.4341 26.6378 47.9814 27.2445 47.6547C27.8605 47.3281 28.5605 47.1647 29.3445 47.1647C30.0725 47.1647 30.7118 47.3141 31.2625 47.6127C31.8225 47.9021 32.2472 48.3314 32.5365 48.9007L31.1925 49.6847C30.9685 49.3301 30.6932 49.0687 30.3665 48.9007C30.0492 48.7327 29.7038 48.6487 29.3305 48.6487C28.9012 48.6487 28.5138 48.7421 28.1685 48.9287C27.8232 49.1154 27.5525 49.3861 27.3565 49.7407C27.1605 50.0861 27.0625 50.5014 27.0625 50.9867C27.0625 51.4721 27.1605 51.8921 27.3565 52.2467C27.5525 52.5921 27.8232 52.8581 28.1685 53.0447C28.5138 53.2314 28.9012 53.3247 29.3305 53.3247C29.7038 53.3247 30.0492 53.2407 30.3665 53.0727C30.6932 52.9047 30.9685 52.6434 31.1925 52.2887L32.5365 53.0727C32.2472 53.6327 31.8225 54.0667 31.2625 54.3747C30.7118 54.6734 30.0725 54.8227 29.3445 54.8227ZM33.9809 54.7247V47.2487H35.7309V54.7247H33.9809ZM34.8629 46.0167C34.5362 46.0167 34.2656 45.9141 34.0509 45.7087C33.8456 45.5034 33.7429 45.2561 33.7429 44.9667C33.7429 44.6681 33.8456 44.4207 34.0509 44.2247C34.2656 44.0194 34.5362 43.9167 34.8629 43.9167C35.1896 43.9167 35.4556 44.0147 35.6609 44.2107C35.8756 44.3974 35.9829 44.6354 35.9829 44.9247C35.9829 45.2327 35.8802 45.4941 35.6749 45.7087C35.4696 45.9141 35.1989 46.0167 34.8629 46.0167ZM38.0278 54.7247V44.3367H39.7778V54.7247H38.0278ZM45.5886 54.8227C44.758 54.8227 44.03 54.6594 43.4046 54.3327C42.7886 53.9967 42.308 53.5394 41.9626 52.9607C41.6266 52.3821 41.4586 51.7241 41.4586 50.9867C41.4586 50.2401 41.622 49.5821 41.9486 49.0127C42.2846 48.4341 42.742 47.9814 43.3206 47.6547C43.9086 47.3281 44.576 47.1647 45.3226 47.1647C46.0506 47.1647 46.6993 47.3234 47.2686 47.6407C47.838 47.9581 48.286 48.4061 48.6126 48.9847C48.9393 49.5634 49.1026 50.2447 49.1026 51.0287C49.1026 51.1034 49.098 51.1874 49.0886 51.2807C49.0886 51.3741 49.084 51.4627 49.0746 51.5467H42.8446V50.3847H48.1506L47.4646 50.7487C47.474 50.3194 47.3853 49.9414 47.1986 49.6147C47.012 49.2881 46.7553 49.0314 46.4286 48.8447C46.1113 48.6581 45.7426 48.5647 45.3226 48.5647C44.8933 48.5647 44.5153 48.6581 44.1886 48.8447C43.8713 49.0314 43.6193 49.2927 43.4326 49.6287C43.2553 49.9554 43.1666 50.3427 43.1666 50.7907V51.0707C43.1666 51.5187 43.2693 51.9154 43.4746 52.2607C43.68 52.6061 43.9693 52.8721 44.3426 53.0587C44.716 53.2454 45.1453 53.3387 45.6306 53.3387C46.0506 53.3387 46.4286 53.2734 46.7646 53.1427C47.1006 53.0121 47.3993 52.8067 47.6606 52.5267L48.5986 53.6047C48.2626 53.9967 47.838 54.3001 47.3246 54.5147C46.8206 54.7201 46.242 54.8227 45.5886 54.8227Z" fill="black"/>
<defs>
<clipPath id="clip0_564_925">
<rect width="30.297" height="32.0645" fill="white" transform="translate(13.46 0.109619)"/>
</clipPath>
</defs>
</svg>
