<svg width="41" height="41" viewBox="0 0 41 41" fill="none" xmlns="http://www.w3.org/2000/svg">
<g clip-path="url(#clip0_562_937)">
<path d="M39.4598 4.38635H2.21793C1.44371 4.38635 0.838867 4.99472 0.838867 5.78467V33.0799C0.838867 33.8699 1.44371 34.5191 2.21793 34.5191H3.82074C3.76691 34.7099 3.73605 34.8296 3.73605 35.0003C3.73605 35.7903 4.36371 36.4263 5.13793 36.4263H9.34355C10.1178 36.4263 10.7454 35.7903 10.7454 35.0003C10.7454 34.8295 10.7146 34.7098 10.6607 34.5191H31.017C30.9632 34.7099 30.9323 34.8296 30.9323 35.0003C30.9323 35.7902 31.56 36.4263 32.3342 36.4263H36.5398C37.314 36.4263 37.9417 35.7903 37.9417 35.0003C37.9417 34.8295 37.9108 34.7098 37.857 34.5191H39.4598C40.234 34.5191 40.8389 33.8699 40.8389 33.0799V5.78467C40.8389 4.99472 40.234 4.38635 39.4598 4.38635ZM38.0351 31.6584H3.64262V7.24707H38.0351V31.6584Z" fill="black"/>
<path d="M35.6055 26.1278H33.2691C32.4948 26.1278 31.8672 26.7682 31.8672 27.5582C31.8672 28.3481 32.4948 28.9885 33.2691 28.9885H35.6055C36.3798 28.9885 37.0074 28.3481 37.0074 27.5582C37.0074 26.7682 36.3798 26.1278 35.6055 26.1278Z" fill="black"/>
<path d="M28.8761 9.82178H7.19387C6.41965 9.82178 5.79199 10.4622 5.79199 11.2521V27.5582C5.79199 28.3481 6.41965 28.9885 7.19387 28.9885H28.8761C29.6504 28.9885 30.278 28.3481 30.278 27.5582V11.2521C30.2779 10.4622 29.6503 9.82178 28.8761 9.82178ZM27.4743 26.1278H8.59574V12.6825H27.4743V26.1278Z" fill="black"/>
<path d="M34.437 21.7719C35.2959 21.7719 35.9921 21.0615 35.9921 20.1851C35.9921 19.3088 35.2959 18.5984 34.437 18.5984C33.5781 18.5984 32.8818 19.3088 32.8818 20.1851C32.8818 21.0615 33.5781 21.7719 34.437 21.7719Z" fill="black"/>
<path d="M34.4371 16.9813C35.296 16.9813 35.9923 16.2708 35.9923 15.3945C35.9923 14.5181 35.296 13.8076 34.4371 13.8076C33.5781 13.8076 32.8818 14.5181 32.8818 15.3945C32.8818 16.2708 33.5781 16.9813 34.4371 16.9813Z" fill="black"/>
</g>
<defs>
<clipPath id="clip0_562_937">
<rect width="40" height="40.8127" fill="white" transform="translate(0.838867)"/>
</clipPath>
</defs>
</svg>
