<svg width="41" height="41" viewBox="0 0 41 41" fill="none" xmlns="http://www.w3.org/2000/svg">
<path d="M17.9243 8.12727C17.2255 5.35932 15.1468 3.36432 12.7226 3.40151C9.76906 3.44681 7.42113 6.49141 7.47831 10.2018L7.42473 15.8839C7.4126 17.1697 7.40653 17.8127 7.18365 18.3842C6.96076 18.9559 6.46811 19.5025 5.48278 20.5954C4.51705 21.6667 4.03418 22.4621 4.03418 23.3744C4.03418 24.7648 5.15573 25.8837 7.39885 28.1213L13.3468 34.0551C15.5899 36.2928 16.7115 37.4116 18.1052 37.4116C19.4988 37.4116 20.6205 36.2928 22.8635 34.0551L34.1647 22.7811C38.4352 18.5209 38.4352 11.6137 34.1647 7.35353C29.8942 3.09334 22.9705 3.09334 18.7 7.35353L17.9243 8.12727ZM17.9243 8.12727L16.3208 9.72699M18.7 29.9014L11.5624 22.7811" stroke="#1C274C" stroke-width="3.75" stroke-linecap="round"/>
</svg>
