<svg width="37" height="36" viewBox="0 0 37 36" fill="none" xmlns="http://www.w3.org/2000/svg">
<path d="M36.0778 11.9903L36.0666 11.9871C36.0701 11.9128 36.0795 11.8413 36.0804 11.7618C36.1067 9.50437 35.5207 7.29524 34.4047 5.44453C33.2888 3.59381 31.6988 2.19443 29.8582 1.44283C28.0175 0.691234 26.0184 0.62515 24.1417 1.25387C22.2649 1.88259 20.6047 3.17452 19.394 4.94833C19.3905 4.94676 19.3869 4.9455 19.3832 4.94454C19.2892 5.08997 19.1665 5.2073 19.0253 5.2867C18.8841 5.3661 18.7286 5.40525 18.5717 5.40086C18.4149 5.39646 18.2613 5.34866 18.1238 5.26146C17.9863 5.17425 17.869 5.0502 17.7817 4.89968L17.7658 4.90366C16.5924 3.10402 14.9606 1.77479 13.0991 1.1023C11.2377 0.429804 9.23991 0.447764 7.38583 1.15364C5.53175 1.85952 3.91431 3.21793 2.76023 5.03848C1.60614 6.85903 0.973259 9.05046 0.950296 11.3056C0.949442 11.3825 0.956805 11.4532 0.95598 11.5274L0.942786 11.5341C0.942786 11.5341 0.939885 11.7956 0.979831 12.2737C1.02132 12.8685 1.10558 13.4582 1.23177 14.0366C1.91903 17.6785 4.25331 24.6874 12.2031 30.982C16.7975 34.64 17.9124 35.6295 18.2072 35.6982C18.2212 35.7015 18.2287 35.7158 18.2445 35.716C18.2604 35.7162 18.271 35.699 18.2873 35.694C18.605 35.6134 19.7767 34.63 24.3835 31.1401C32.1103 25.3227 34.7287 18.7202 35.6178 14.9848C35.8315 14.2141 35.97 13.4183 36.0307 12.6122C36.0731 12.2147 36.0778 11.9903 36.0778 11.9903ZM18.5735 6.34115C18.5473 6.2885 18.5167 6.23579 18.4906 6.17948C18.5167 6.23317 18.5474 6.28536 18.5735 6.34115Z" fill="#FF5245"/>
</svg>
