<svg xmlns="http://www.w3.org/2000/svg" width="60" height="61" viewBox="0 0 60 61" fill="none">
  <g clip-path="url(#clip0_260_771)">
    <path d="M32.0306 0.61145C47.2539 0.61145 59.7093 13.0669 59.7093 28.2902V32.6147C59.7093 47.838 47.2539 60.2934 32.0306 60.2934H27.7061C12.4828 60.2934 0.0273438 47.838 0.0273438 32.6147V28.2902C0.0273438 13.0669 12.4828 0.61145 27.7061 0.61145H32.0306ZM30.4124 15.6119L30.0273 15.6115C26.8207 15.6115 23.614 15.7174 23.614 15.7174C18.9303 15.7174 15.1333 19.5144 15.1333 24.198C15.1333 24.198 15.036 26.9515 15.0279 29.907L15.0273 30.2934C15.0273 33.6026 15.1333 37.0249 15.1333 37.0249C15.1333 41.7086 18.9303 45.5055 23.614 45.5055C23.614 45.5055 26.6121 45.6115 29.7094 45.6115C33.0185 45.6115 36.5468 45.5055 36.5468 45.5055C41.2305 45.5055 44.9214 41.8146 44.9214 37.1309C44.9214 37.1309 45.0273 33.7471 45.0273 30.5055L45.0254 29.7447C45.0111 26.8363 44.9213 24.092 44.9213 24.092C44.9213 19.4083 41.2304 15.7174 36.5467 15.7174C36.5467 15.7174 33.4938 15.6198 30.4124 15.6119ZM30.0273 18.3114C32.6569 18.3114 36.0284 18.3983 36.0284 18.3983C39.8691 18.3983 42.2404 20.7697 42.2404 24.6103C42.2404 24.6103 42.3273 27.9242 42.3273 30.5244C42.3273 33.1826 42.2404 36.6124 42.2404 36.6124C42.2404 40.4531 39.8691 42.8244 36.0284 42.8244C36.0284 42.8244 33.0468 42.8974 30.4598 42.9096L29.7666 42.9113C27.2268 42.9113 24.1323 42.8244 24.1323 42.8244C20.2917 42.8244 17.8143 40.3469 17.8143 36.5064C17.8143 36.5064 17.7273 33.0641 17.7273 30.3506C17.7273 27.8109 17.8143 24.6103 17.8143 24.6103C17.8143 20.7697 20.2917 18.3983 24.1323 18.3983C24.1323 18.3983 27.3978 18.3114 30.0273 18.3114ZM30.0273 22.9275C25.7836 22.9275 22.3434 26.3677 22.3434 30.6114C22.3434 34.855 25.7836 38.2952 30.0273 38.2952C34.271 38.2952 37.7111 34.855 37.7111 30.6114C37.7111 26.3677 34.271 22.9275 30.0273 22.9275ZM30.0273 25.6113C32.7887 25.6113 35.0273 27.8499 35.0273 30.6114C35.0273 33.3728 32.7887 35.6114 30.0273 35.6114C27.2659 35.6114 25.0273 33.3728 25.0273 30.6114C25.0273 27.8499 27.2658 25.6113 30.0273 25.6113ZM38.0788 20.7952C37.0534 20.7952 36.2221 21.6306 36.2221 22.661C36.2221 23.6915 37.0534 24.5268 38.0788 24.5268C39.1041 24.5268 39.9353 23.6915 39.9353 22.661C39.9353 21.6305 39.1041 20.7952 38.0788 20.7952Z" fill="#202327"/>
  </g>
  <defs>
    <clipPath id="clip0_260_771">
      <rect width="60" height="60" fill="white" transform="translate(0 0.549988)"/>
    </clipPath>
  </defs>
</svg>