<svg width="65" height="62" viewBox="0 0 65 62" fill="none" xmlns="http://www.w3.org/2000/svg">
<path d="M49.1174 32.0316C48.9915 29.5514 48.5868 27.2103 47.8354 24.9333C47.1829 22.9563 46.4317 22.4658 44.213 22.6408C41.0413 22.891 37.9615 23.6573 34.8451 24.217C29.4287 25.1899 24.1336 25.118 19.1402 22.5805C18.2697 22.1382 17.3811 21.7006 16.6801 21.0172C16.9186 20.7289 17.1241 20.8576 17.3147 20.9494C22.7575 23.5701 28.3762 23.4902 34.1068 21.9421C37.4795 21.031 40.8309 20.0475 44.3477 19.6702C47.492 19.3329 49.9701 21.0594 50.3767 23.9977C50.4815 24.7546 50.5926 25.5107 50.7005 26.265C50.8638 26.2974 50.9872 26.3627 51.0727 26.333C55.5679 24.7703 59.1243 22.2126 60.5421 17.7698C61.7437 14.0046 60.8535 10.4141 58.5984 7.16246C57.2741 5.25292 55.1854 4.38385 52.8085 4.15226C49.0029 3.78148 45.4711 4.71503 42.0545 6.18409C39.1826 7.41894 36.6227 9.13696 33.9478 10.679C31.0152 12.3696 28.0514 14.0199 24.642 14.7617C20.1955 15.7291 15.4183 13.4503 13.6557 9.53603C13.547 9.29453 13.3334 9.04543 13.5588 8.74283C14.076 8.65599 14.3621 9.03557 14.7155 9.26065C16.672 10.5068 18.6404 11.6856 21.1202 11.837C22.593 11.9269 23.9372 11.6095 25.2346 11.0375C28.6399 9.53612 31.6488 7.44173 34.727 5.45338C38.5575 2.97906 42.6858 1.14608 47.2938 0.35259C51.0676 -0.297254 54.7653 -0.140081 58.208 1.59933C61.9249 3.47731 63.6392 6.68579 64.5224 10.3622C66.5514 18.807 62.0106 26.0249 52.8787 28.9253C50.4099 29.7094 50.4603 29.7111 50.366 32.1691C50.2978 33.9457 50.0789 35.7176 49.9118 37.4904C49.8873 37.7501 49.9003 38.0699 49.3646 38.185C49.2946 36.1468 49.4319 34.1259 49.1174 32.0316Z" fill="black"/>
<path d="M22.484 34.5275C30.382 33.3179 37.8623 34.4041 45.1075 37.3323C34.1148 34.7636 23.4976 35.9444 13.0231 40.2567C12.9634 38.7419 13.2693 37.5636 13.4505 36.3854C13.7854 34.207 14.106 32.035 14.0588 29.8235C14.0443 29.1411 13.7926 28.757 13.1727 28.4061C9.68832 26.4335 6.6398 24.0225 4.96878 20.4442C2.8948 16.003 2.48016 11.4763 4.62662 6.93055C6.54078 2.87678 11.8637 -0.173134 17.1665 1.22073C20.0511 1.97898 22.7401 3.05884 25.0262 4.90184C25.5531 5.32664 26.1094 5.75093 26.3665 6.38734C26.0942 6.63999 25.9164 6.44235 25.7451 6.33822C22.9914 4.66436 19.9121 3.90348 16.6908 3.97029C11.3247 4.08158 7.26043 7.06807 6.93048 12.5429C6.61439 17.7878 8.69149 21.9416 13.0326 25.1823C13.2026 25.3092 13.3891 25.4166 13.7426 25.647C13.4829 22.7679 12.7957 20.1426 11.8568 17.5257C12.4407 17.5273 12.5024 17.8875 12.6453 18.1455C14.5902 21.6559 15.7676 25.4041 16.3887 29.2919C16.5561 30.3395 16.916 30.4961 17.8916 30.2659C21.2324 29.4776 24.6322 28.9324 28.0728 28.8838C32.3319 28.8236 36.4754 29.5853 40.4713 30.9832C42.1069 31.5554 43.7208 32.1783 45.2997 33.0904C44.8832 33.4429 44.5834 33.2452 44.3132 33.1309C40.2697 31.4211 35.9994 30.5779 31.5932 30.4486C27.6431 30.3326 23.7836 31.0346 19.9873 32.0272C19.483 32.1591 18.9772 32.2873 18.4772 32.4324C16.5774 32.9838 16.4776 33.1462 16.6682 34.9464C16.7375 35.6005 17.0191 35.7796 17.7053 35.6106C19.2587 35.2281 20.8273 34.9 22.484 34.5275Z" fill="black"/>
<path d="M57.5335 59.2492C59.4168 59.5298 61.2502 59.5315 62.9738 60.2083C57.7873 59.933 52.6411 59.2702 47.4706 58.8752C42.2086 58.4731 36.939 58.3215 31.6696 58.1556C26.4299 57.9907 21.1911 58.1978 15.9549 58.4306C10.7218 58.6632 5.50464 59.1089 0 59.6644C0.555781 58.8869 1.12869 58.9287 1.58951 58.8855C6.79518 58.3976 12.0029 57.9731 17.2348 57.744C22.0292 57.534 26.8179 57.6069 31.609 57.5751C37.2984 57.5373 42.9663 57.9184 48.6329 58.3714C51.5746 58.6066 54.5072 58.8867 57.5335 59.2492Z" fill="black"/>
<path d="M10.8679 60.4694C14.4113 59.9969 17.8734 59.6749 21.3419 59.4953C25.041 59.3037 28.7467 59.182 32.4568 59.2504C40.2829 59.3947 48.0563 60.0397 55.7702 61.2879C56.5485 61.4138 57.3917 61.3342 58.0425 62.0001C52.2338 61.3385 46.447 60.5519 40.6081 60.199C34.6621 59.8396 28.7205 59.7098 22.7694 60.0214C16.9019 60.3287 11.0704 60.9985 5.21558 61.5347C6.97652 60.7245 8.89901 60.7305 10.8679 60.4694Z" fill="black"/>
<path d="M42.5826 54.4842C42.5163 54.4265 42.4832 54.3399 42.4832 54.2244C42.4832 54.0628 42.5163 53.982 42.5826 53.982C42.7151 53.982 42.8875 53.9646 43.0996 53.93C43.3117 53.8954 43.5171 53.8492 43.716 53.7914C43.9148 53.7337 44.054 53.6702 44.1336 53.6009C44.3589 53.3931 44.4782 52.8908 44.4915 52.0941C44.518 50.7547 44.5445 49.5539 44.571 48.4916C44.6108 47.4177 44.6439 46.5402 44.6704 45.859C44.6969 45.1662 44.7102 44.7216 44.7102 44.5253C44.7102 44.2136 44.6837 43.9826 44.6307 43.8325C44.6041 43.7633 44.4848 43.7055 44.2727 43.6593C44.0739 43.6016 43.8552 43.5554 43.6166 43.5208C43.3779 43.4861 43.1924 43.4688 43.0598 43.4688C43.0068 43.4688 42.9803 43.388 42.9803 43.2264C42.9803 43.0993 43.0068 43.0127 43.0598 42.9666C43.3779 42.9781 43.7292 42.9954 44.1137 43.0185C44.4981 43.0416 44.8892 43.0532 45.2868 43.0532C45.5387 43.0532 45.8105 43.0474 46.1021 43.0358C46.407 43.0127 46.745 42.9896 47.1162 42.9666C47.2222 43.2206 48.5346 46.113 51.0533 51.6438C51.0798 51.6669 51.1063 51.6784 51.1328 51.6784C51.1859 51.6784 51.219 51.6553 51.2322 51.6091C51.8818 50.2813 52.4651 49.0689 52.9821 47.972C53.4991 46.8751 53.9498 45.8994 54.3342 45.0449L55.1296 42.9666C55.5538 42.9896 55.8984 43.007 56.1636 43.0185C56.4419 43.0301 56.6474 43.0358 56.78 43.0358C57.1909 43.0358 57.582 43.0301 57.9531 43.0185C58.3243 43.007 58.6756 42.9896 59.007 42.9666C59.0468 43.0705 59.0667 43.1571 59.0667 43.2264C59.0667 43.388 59.0335 43.4688 58.9672 43.4688H58.9275C58.7817 43.4688 58.5894 43.5092 58.3508 43.5901C58.1122 43.6593 57.9333 43.7344 57.814 43.8152C57.6549 43.9191 57.5753 44.306 57.5753 44.9757L57.7543 52.0075C57.7808 52.6772 57.8802 53.2083 58.0526 53.6009C58.0923 53.6702 58.1984 53.7337 58.3707 53.7914C58.543 53.8492 58.7286 53.8954 58.9275 53.93C59.1396 53.9646 59.292 53.982 59.3848 53.982C59.4378 53.982 59.4643 54.0628 59.4643 54.2244C59.4643 54.3053 59.4511 54.3919 59.4246 54.4842C58.7618 54.4611 58.2315 54.4438 57.8338 54.4323C57.4494 54.4092 57.1909 54.3976 57.0583 54.3976L54.6722 54.4842C54.6192 54.438 54.5927 54.3457 54.5927 54.2071C54.5927 54.057 54.6192 53.982 54.6722 53.982C54.8048 53.982 55.0036 53.9531 55.2688 53.8954C55.5471 53.8376 55.746 53.7799 55.8653 53.7222C56.0244 53.6298 56.1039 53.3815 56.1039 52.9774V52.0595L55.8653 45.9629C55.8653 45.8359 55.8454 45.6973 55.8056 45.5472C55.7791 45.3856 55.746 45.247 55.7062 45.1315C55.6664 45.0045 55.62 44.941 55.567 44.941C55.5405 44.941 55.5074 44.9814 55.4676 45.0623L51.3118 53.7222C51.0599 54.2187 50.8147 54.4669 50.5761 54.4669C50.5628 54.4669 50.5032 54.4554 50.3971 54.4323L45.8436 44.3521C45.8038 45.9802 45.7574 47.4351 45.7044 48.7167C45.6514 49.9869 45.605 51.0087 45.5652 51.7823C45.5387 52.556 45.5255 53.0063 45.5255 53.1333C45.5255 53.3411 45.5652 53.4912 45.6448 53.5836C45.6978 53.6413 45.8303 53.7048 46.0424 53.7741C46.2545 53.8319 46.4733 53.8838 46.6986 53.93C46.9372 53.9646 47.0963 53.982 47.1758 53.982C47.2289 53.982 47.2554 54.0686 47.2554 54.2418C47.2554 54.311 47.2421 54.3919 47.2156 54.4842C46.5528 54.4611 46.0292 54.4438 45.6448 54.4323C45.2603 54.4092 45.0151 54.3976 44.909 54.3976L42.5826 54.4842Z" fill="black"/>
<path d="M28.8425 54.4842C28.7895 54.438 28.7629 54.3514 28.7629 54.2244C28.7629 54.0628 28.7895 53.9819 28.8425 53.9819C29.0016 53.9819 29.207 53.9531 29.4589 53.8953C29.7108 53.8376 29.8831 53.7568 29.9759 53.6529C30.1217 53.4912 30.2675 53.2776 30.4133 53.012C30.5724 52.7465 30.7381 52.4174 30.9104 52.0248L34.3703 44.2828C34.4499 44.1096 34.4962 43.9884 34.5095 43.9191C34.536 43.8498 34.5559 43.7921 34.5692 43.7459C34.5957 43.6882 34.6421 43.5958 34.7083 43.4688C34.8011 43.3072 34.8939 43.1801 34.9867 43.0878C35.0795 42.9954 35.232 42.9492 35.4441 42.9492L35.623 43.0012L39.5999 52.146C39.7192 52.4116 39.8252 52.6483 39.918 52.8562C40.0241 53.064 40.1102 53.243 40.1765 53.3931C40.2296 53.5085 40.3422 53.6125 40.5146 53.7048C40.7002 53.7857 40.8857 53.8549 41.0713 53.9127C41.2702 53.9589 41.4226 53.9819 41.5287 53.9819C41.5817 53.9819 41.6082 54.0916 41.6082 54.311C41.6082 54.3341 41.6016 54.363 41.5883 54.3976C41.5883 54.4207 41.5817 54.4496 41.5684 54.4842C40.9056 54.4611 40.3886 54.4438 40.0175 54.4323C39.6595 54.4092 39.4474 54.3976 39.3812 54.3976L37.0746 54.4842C37.0216 54.438 36.995 54.3457 36.995 54.2071C37.0083 54.057 37.0414 53.9819 37.0945 53.9819C37.2535 53.9819 37.4524 53.9531 37.691 53.8953C37.9296 53.8376 38.0688 53.7626 38.1086 53.6702C38.1218 53.624 38.1284 53.5778 38.1284 53.5316C38.1417 53.4854 38.1483 53.4393 38.1483 53.3931C38.1483 53.243 38.1284 53.0698 38.0887 52.8735C38.0489 52.6656 38.0025 52.504 37.9495 52.3885L37.0547 50.2409C37.0149 50.1947 36.9752 50.1716 36.9354 50.1716C36.4184 50.1369 35.9147 50.1196 35.4242 50.1196C35.0795 50.1196 34.6951 50.1312 34.2709 50.1543C33.8599 50.1658 33.4026 50.1831 32.8989 50.2062L32.7995 50.2582L31.9444 52.1634C31.8119 52.452 31.7191 52.6945 31.666 52.8908C31.6263 53.0871 31.6064 53.243 31.6064 53.3584C31.6064 53.5201 31.6594 53.6356 31.7655 53.7048C31.8848 53.7857 32.077 53.8549 32.3421 53.9127C32.6072 53.9589 32.7995 53.9819 32.9188 53.9819C32.9585 53.9819 32.9784 54.0512 32.9784 54.1898C32.9917 54.3283 32.985 54.4265 32.9585 54.4842L30.9104 54.3976C30.5393 54.3745 30.1747 54.3803 29.8168 54.4149C29.4721 54.438 29.1474 54.4611 28.8425 54.4842ZM34.7282 49.2883C35.3248 49.2883 35.9279 49.271 36.5377 49.2363L36.5974 49.1497L34.9867 45.322L33.2767 49.1844C33.2767 49.2305 33.2899 49.2536 33.3164 49.2536C33.6611 49.2652 33.9461 49.2767 34.1715 49.2883C34.4101 49.2883 34.5957 49.2883 34.7282 49.2883Z" fill="black"/>
<path d="M22.8771 54.4842C22.8241 54.438 22.7976 54.3514 22.7976 54.2244C22.7976 54.0628 22.8241 53.982 22.8771 53.982C22.9965 53.982 23.1555 53.9704 23.3544 53.9473C23.5532 53.9127 23.7388 53.8665 23.9111 53.8088C24.0835 53.751 24.1829 53.6933 24.2094 53.6356C24.2624 53.4739 24.2956 53.2661 24.3088 53.012C24.3353 52.758 24.3486 52.452 24.3486 52.0941V45.374C24.3486 45.0161 24.3353 44.7101 24.3088 44.4561C24.2956 44.1905 24.2624 43.9826 24.2094 43.8325C24.1829 43.7633 24.0835 43.7055 23.9111 43.6593C23.7388 43.6016 23.5532 43.5554 23.3544 43.5208C23.1555 43.4861 22.9965 43.4688 22.8771 43.4688C22.8241 43.4688 22.7976 43.3938 22.7976 43.2437C22.7976 43.1051 22.8241 43.0127 22.8771 42.9666L25.2633 43.0532C25.3693 43.0532 25.6146 43.0474 25.999 43.0358C26.3834 43.0127 26.907 42.9896 27.5698 42.9666C27.5964 43.0589 27.6096 43.1455 27.6096 43.2264C27.6096 43.388 27.5831 43.4688 27.5301 43.4688C27.4505 43.4688 27.3113 43.4919 27.1125 43.5381C26.9137 43.5727 26.7281 43.6189 26.5557 43.6767C26.3834 43.7229 26.284 43.7748 26.2575 43.8325C26.1382 44.2251 26.0785 44.762 26.0785 45.4433V52.0248C26.0785 52.6945 26.1382 53.2314 26.2575 53.6356C26.284 53.6818 26.3834 53.7337 26.5557 53.7914C26.7281 53.8492 26.9137 53.8954 27.1125 53.93C27.3113 53.9646 27.4505 53.982 27.5301 53.982C27.5831 53.982 27.6096 54.0686 27.6096 54.2418C27.6096 54.311 27.5964 54.3919 27.5698 54.4842C26.907 54.4611 26.3834 54.4438 25.999 54.4323C25.6146 54.4092 25.3693 54.3976 25.2633 54.3976L22.8771 54.4842Z" fill="black"/>
<path d="M4.56378 54.4842C4.4975 54.4265 4.46436 54.3399 4.46436 54.2244C4.46436 54.0628 4.4975 53.982 4.56378 53.982C4.69634 53.982 4.86867 53.9646 5.08077 53.93C5.29287 53.8954 5.49834 53.8492 5.69718 53.7914C5.89603 53.7337 6.03522 53.6702 6.11475 53.6009C6.34011 53.3931 6.45941 52.8908 6.47267 52.0941C6.49918 50.7547 6.52569 49.5539 6.55221 48.4916C6.59198 47.4177 6.62512 46.5402 6.65163 45.859C6.67814 45.1662 6.6914 44.7216 6.6914 44.5253C6.6914 44.2136 6.66488 43.9826 6.61186 43.8325C6.58535 43.7633 6.46604 43.7055 6.25394 43.6593C6.0551 43.6016 5.83637 43.5554 5.59776 43.5208C5.35915 43.4861 5.17356 43.4688 5.041 43.4688C4.98798 43.4688 4.96146 43.388 4.96146 43.2264C4.96146 43.0993 4.98798 43.0127 5.041 42.9666C5.35915 42.9781 5.71044 42.9954 6.09487 43.0185C6.4793 43.0416 6.87036 43.0532 7.26804 43.0532C7.51991 43.0532 7.79166 43.0474 8.0833 43.0358C8.38819 43.0127 8.72622 42.9896 9.0974 42.9666C9.20345 43.2206 10.5158 46.113 13.0345 51.6438C13.061 51.6669 13.0875 51.6784 13.114 51.6784C13.1671 51.6784 13.2002 51.6553 13.2134 51.6091C13.863 50.2813 14.4463 49.0689 14.9633 47.972C15.4803 46.8751 15.931 45.8994 16.3154 45.0449L17.1108 42.9666C17.535 42.9896 17.8796 43.007 18.1448 43.0185C18.4231 43.0301 18.6286 43.0358 18.7612 43.0358C19.1721 43.0358 19.5632 43.0301 19.9343 43.0185C20.3055 43.007 20.6568 42.9896 20.9882 42.9666C21.028 43.0705 21.0479 43.1571 21.0479 43.2264C21.0479 43.388 21.0147 43.4688 20.9484 43.4688H20.9087C20.7629 43.4688 20.5706 43.5092 20.332 43.5901C20.0934 43.6593 19.9145 43.7344 19.7952 43.8152C19.6361 43.9191 19.5565 44.306 19.5565 44.9757L19.7355 52.0075C19.762 52.6772 19.8614 53.2083 20.0338 53.6009C20.0735 53.6702 20.1796 53.7337 20.3519 53.7914C20.5242 53.8492 20.7098 53.8954 20.9087 53.93C21.1208 53.9646 21.2732 53.982 21.366 53.982C21.419 53.982 21.4455 54.0628 21.4455 54.2244C21.4455 54.3053 21.4323 54.3919 21.4058 54.4842C20.743 54.4611 20.2127 54.4438 19.815 54.4323C19.4306 54.4092 19.1721 54.3976 19.0395 54.3976L16.6534 54.4842C16.6004 54.438 16.5739 54.3457 16.5739 54.2071C16.5739 54.057 16.6004 53.982 16.6534 53.982C16.786 53.982 16.9848 53.9531 17.25 53.8954C17.5283 53.8376 17.7272 53.7799 17.8465 53.7222C18.0056 53.6298 18.0851 53.3815 18.0851 52.9774V52.0595L17.8465 45.9629C17.8465 45.8359 17.8266 45.6973 17.7868 45.5472C17.7603 45.3856 17.7272 45.247 17.6874 45.1315C17.6476 45.0045 17.6013 44.941 17.5482 44.941C17.5217 44.941 17.4886 44.9814 17.4488 45.0623L13.293 53.7222C13.0411 54.2187 12.7959 54.4669 12.5573 54.4669C12.544 54.4669 12.4844 54.4554 12.3783 54.4323L7.8248 44.3521C7.78503 45.9802 7.73864 47.4351 7.68561 48.7167C7.63259 49.9869 7.58619 51.0087 7.54642 51.7823C7.51991 52.556 7.50665 53.0063 7.50665 53.1333C7.50665 53.3411 7.54642 53.4912 7.62596 53.5836C7.67898 53.6413 7.81155 53.7048 8.02365 53.7741C8.23574 53.8319 8.45447 53.8838 8.67983 53.93C8.91844 53.9646 9.07751 53.982 9.15705 53.982C9.21008 53.982 9.23659 54.0686 9.23659 54.2418C9.23659 54.311 9.22333 54.3919 9.19682 54.4842C8.53401 54.4611 8.01039 54.4438 7.62596 54.4323C7.24153 54.4092 6.99629 54.3976 6.89024 54.3976L4.56378 54.4842Z" fill="black"/>
</svg>
