<svg width="32" height="33" viewBox="0 0 32 33" fill="none" xmlns="http://www.w3.org/2000/svg">
<path id="Vector" d="M9.6 14.95C10.0533 14.95 10.4333 14.7967 10.74 14.49C11.0467 14.1833 11.2 13.8033 11.2 13.35C11.2 12.8967 11.0467 12.5167 10.74 12.21C10.4333 11.9033 10.0533 11.75 9.6 11.75C9.14667 11.75 8.76667 11.9033 8.46 12.21C8.15333 12.5167 8 12.8967 8 13.35C8 13.8033 8.15333 14.1833 8.46 14.49C8.76667 14.7967 9.14667 14.95 9.6 14.95ZM16 14.95C16.4533 14.95 16.8333 14.7967 17.14 14.49C17.4467 14.1833 17.6 13.8033 17.6 13.35C17.6 12.8967 17.4467 12.5167 17.14 12.21C16.8333 11.9033 16.4533 11.75 16 11.75C15.5467 11.75 15.1667 11.9033 14.86 12.21C14.5533 12.5167 14.4 12.8967 14.4 13.35C14.4 13.8033 14.5533 14.1833 14.86 14.49C15.1667 14.7967 15.5467 14.95 16 14.95ZM22.4 14.95C22.8533 14.95 23.2333 14.7967 23.54 14.49C23.8467 14.1833 24 13.8033 24 13.35C24 12.8967 23.8467 12.5167 23.54 12.21C23.2333 11.9033 22.8533 11.75 22.4 11.75C21.9467 11.75 21.5667 11.9033 21.26 12.21C20.9533 12.5167 20.8 12.8967 20.8 13.35C20.8 13.8033 20.9533 14.1833 21.26 14.49C21.5667 14.7967 21.9467 14.95 22.4 14.95ZM0 32.55V3.74999C0 2.86999 0.313333 2.11665 0.94 1.48999C1.56667 0.863321 2.32 0.549988 3.2 0.549988H28.8C29.68 0.549988 30.4333 0.863321 31.06 1.48999C31.6867 2.11665 32 2.86999 32 3.74999V22.95C32 23.83 31.6867 24.5833 31.06 25.21C30.4333 25.8367 29.68 26.15 28.8 26.15H6.4L0 32.55ZM5.04 22.95H28.8V3.74999H3.2V24.75L5.04 22.95Z" fill="#2F5B12"/>
</svg>
