<svg width="29" height="27" viewBox="0 0 29 27" fill="none" xmlns="http://www.w3.org/2000/svg">
<path d="M9.41897 11.4786C8.37405 11.4786 7.53518 12.3306 7.53518 13.3917V24.8703C7.53518 25.9315 8.37405 26.7834 9.41897 26.7834H11.3028C12.3477 26.7834 13.1866 25.9315 13.1866 24.8703V13.3917C13.1866 12.3306 12.3477 11.4786 11.3028 11.4786H9.41897ZM1.88379 17.2179C0.838876 17.2179 0 18.0699 0 19.131V24.8703C0 25.9315 0.838876 26.7834 1.88379 26.7834H3.76759C4.81251 26.7834 5.65138 25.9315 5.65138 24.8703V19.131C5.65138 18.0699 4.81251 17.2179 3.76759 17.2179H1.88379Z" fill="#2E3436"/>
<path d="M24.4893 0C23.4444 0 22.6055 0.851925 22.6055 1.9131V24.8703C22.6055 25.9314 23.4444 26.7834 24.4893 26.7834H26.3731C27.418 26.7834 28.2569 25.9314 28.2569 24.8703V1.9131C28.2569 0.851925 27.418 0 26.3731 0H24.4893ZM16.9541 5.73929C15.9092 5.73929 15.0703 6.59122 15.0703 7.65239V24.8703C15.0703 25.9314 15.9092 26.7834 16.9541 26.7834H18.8379C19.8828 26.7834 20.7217 25.9314 20.7217 24.8703V7.65239C20.7217 6.59122 19.8828 5.73929 18.8379 5.73929H16.9541Z" fill="#2E3436" fill-opacity="0.34902"/>
</svg>
