<svg width="40" height="41" viewBox="0 0 40 41" fill="none" xmlns="http://www.w3.org/2000/svg">
<path d="M19.9997 37.2213C29.2044 37.2213 36.6663 29.7594 36.6663 20.5546C36.6663 11.3499 29.2044 3.88794 19.9997 3.88794C10.7949 3.88794 3.33301 11.3499 3.33301 20.5546C3.33301 29.7594 10.7949 37.2213 19.9997 37.2213Z" stroke="#1C274C" stroke-width="3.75"/>
<path d="M14.8545 27.1107C16.9517 27.6363 19.331 27.6367 21.7253 26.995C24.1197 26.3535 26.18 25.1635 27.7335 23.6597" stroke="#1C274C" stroke-width="3.75" stroke-linecap="round"/>
<path d="M24.8298 19.2596C25.7189 19.0214 26.1499 17.7471 25.7926 16.4134C25.4352 15.0797 24.4248 14.1917 23.5357 14.43C22.6465 14.6682 22.2155 15.9425 22.5728 17.2761C22.9302 18.6098 23.9406 19.4978 24.8298 19.2596Z" fill="#1C274C"/>
<path d="M15.1706 21.8492C16.0597 21.611 16.4908 20.3367 16.1334 19.003C15.776 17.6693 14.7656 16.7813 13.8765 17.0196C12.9874 17.2578 12.5563 18.5321 12.9136 19.8657C13.271 21.1994 14.2815 22.0874 15.1706 21.8492Z" fill="#1C274C"/>
<path d="M21.667 27.2221L22.4637 28.8451C23.0658 30.0721 24.5418 30.5878 25.7772 30.0029C27.0375 29.4064 27.566 27.8939 26.9517 26.6421L26.1862 25.0828" stroke="#1C274C" stroke-width="3.75"/>
</svg>
