<svg xmlns="http://www.w3.org/2000/svg" width="60" height="61" viewBox="0 0 60 61" fill="none">
  <path d="M30 0.549988C13.4297 0.549988 0 13.9797 0 30.55C0 47.1203 13.4297 60.55 30 60.55C46.5703 60.55 60 47.1203 60 30.55C60 13.9797 46.5703 0.549988 30 0.549988ZM41.9766 25.8859C41.9883 26.1437 41.9883 26.4133 41.9883 26.6828C41.9883 34.8273 35.7891 44.2258 24.4453 44.2258C20.9648 44.2258 17.7188 43.2062 15 41.4601C15.4805 41.5187 15.9727 41.5422 16.4766 41.5422C19.3594 41.5422 22.0195 40.5578 24.1289 38.9055C21.4336 38.8586 19.1484 37.0773 18.375 34.6281C18.75 34.6984 19.1367 34.7336 19.5352 34.7336C20.0977 34.7336 20.6484 34.6633 21.1641 34.5109C18.3398 33.9484 16.2188 31.4523 16.2188 28.4641V28.3937C17.0508 28.8508 18 29.132 19.0078 29.1672C17.3555 28.0656 16.2656 26.1672 16.2656 24.0344C16.2656 22.9094 16.5703 21.843 17.0977 20.9289C20.1445 24.6672 24.6797 27.1164 29.8008 27.3742C29.6953 26.9289 29.6367 26.4601 29.6367 25.968C29.6367 22.5695 32.4023 19.8039 35.8008 19.8039C37.5703 19.8039 39.1758 20.5539 40.3008 21.7492C41.707 21.468 43.0195 20.9641 44.2148 20.2492C43.7578 21.6906 42.7734 22.8976 41.5078 23.6594C42.75 23.507 43.9453 23.1789 45.0469 22.6867C44.2266 23.9289 43.1836 25.007 41.9766 25.8859Z" fill="black"/>
</svg>